<svg width="100" height="100" viewBox="0 0 100 100" fill="none" xmlns="http://www.w3.org/2000/svg">
<path d="M0 48C0 25.3726 0 14.0589 7.02944 7.02944C14.0589 0 25.3726 0 48 0H52C74.6274 0 85.9411 0 92.9706 7.02944C100 14.0589 100 25.3726 100 48V52C100 74.6274 100 85.9411 92.9706 92.9706C85.9411 100 74.6274 100 52 100H48C25.3726 100 14.0589 100 7.02944 92.9706C0 85.9411 0 74.6274 0 52V48Z" fill="#0077FF"/>
<path d="M53.2083 72.042C30.4167 72.042 17.4168 56.417 16.8751 30.417H28.2917C28.6667 49.5003 37.0833 57.5836 43.7499 59.2503V30.417H54.5002V46.8752C61.0836 46.1669 67.9994 38.667 70.3328 30.417H81.0831C79.2914 40.5837 71.7914 48.0836 66.458 51.1669C71.7914 53.6669 80.3335 60.2086 83.5835 72.042H71.7498C69.2081 64.1253 62.8752 58.0003 54.5002 57.1669V72.042H53.2083Z" fill="white"/>
</svg>
