<svg width="50" height="50" fill="none" xmlns="http://www.w3.org/2000/svg"><rect width="50" height="50" rx="16" fill="#fff"/><path fill-rule="evenodd" clip-rule="evenodd" d="M34 1H16A15 15 0 0 0 1 16v18a15 15 0 0 0 15 15h18a15 15 0 0 0 15-15V16A15 15 0 0 0 34 1ZM16 0A16 16 0 0 0 0 16v18a16 16 0 0 0 16 16h18a16 16 0 0 0 16-16V16A16 16 0 0 0 34 0H16Z" fill="#000" fill-opacity=".12"/><g clip-path="url(#a)"><path fill-rule="evenodd" clip-rule="evenodd" d="M11.24 40.32H38.3V11.65H11.24v28.67Z" fill="#338EF5"/><path opacity=".68" fill-rule="evenodd" clip-rule="evenodd" d="m16 28.14 18.52-1.12c.18 1.04.27 2.31.27 3.81v5h-20l1.21-7.7Z" fill="#000"/><path fill-rule="evenodd" clip-rule="evenodd" d="M13.3 36.2h20.65s.68-5.36.9-9.51c.37-6.6.26-12 .26-12H14.36s.16 5.49-.2 12.17c-.22 4.08-.87 9.34-.87 9.34Z" fill="#fff"/><path fill-rule="evenodd" clip-rule="evenodd" d="M24.95 7.18a3.26 3.26 0 0 1 3.32 3.2v4.32h3.87v3.58H17.77v-3.6h3.87v-4.32c0-1.7 1.38-3.09 3.13-3.18h.18Zm0 1.77c-.75 0-1.36.58-1.36 1.3 0 .72.6 1.3 1.36 1.3.75 0 1.35-.58 1.35-1.3 0-.72-.6-1.3-1.35-1.3Z" fill="#000"/><mask id="b" style="mask-type:alpha" maskUnits="userSpaceOnUse" x="16" y="16" width="17" height="18"><path fill-rule="evenodd" clip-rule="evenodd" d="M16.93 34h14.01s.66-4.35.82-7.73c.25-5.35.37-9.75.37-9.75H17.67s.12 4.46-.13 9.89c-.16 3.31-.6 7.58-.6 7.58Z" fill="#fff"/></mask><g mask="url(#b)"><path d="M32.23 21.97H17.56v2.39h14.67v-2.39Z" fill="#BCB7A5"/></g><mask id="c" style="mask-type:alpha" maskUnits="userSpaceOnUse" x="16" y="16" width="17" height="18"><path fill-rule="evenodd" clip-rule="evenodd" d="M16.93 34h14.01s.66-4.35.82-7.73c.25-5.35.37-9.75.37-9.75H17.67s.12 4.46-.13 9.89c-.16 3.31-.6 7.58-.6 7.58Z" fill="#fff"/></mask><g mask="url(#c)"><path fill-rule="evenodd" clip-rule="evenodd" d="M17.2 25.95h15.03l-.14 2.4H17.03l.16-2.4Z" fill="#BCB7A5"/></g><mask id="d" style="mask-type:alpha" maskUnits="userSpaceOnUse" x="16" y="16" width="17" height="18"><path fill-rule="evenodd" clip-rule="evenodd" d="M16.93 34h14.01s.66-4.35.82-7.73c.25-5.35.37-9.75.37-9.75H17.67s.12 4.46-.13 9.89c-.16 3.31-.6 7.58-.6 7.58Z" fill="#fff"/></mask><g mask="url(#d)"><path fill-rule="evenodd" clip-rule="evenodd" d="M17 29.94h7.83l-.24 2.4h-7.82l.23-2.4Z" fill="#BCB7A5"/></g></g><defs><clipPath id="a"><path fill="#fff" transform="translate(8 7)" d="M0 0h33.33v33.33H0z"/></clipPath></defs></svg>