<?xml version="1.0" encoding="iso-8859-1"?>
<svg height="800px" width="800px" version="1.1" xmlns="http://www.w3.org/2000/svg" xmlns:xlink="http://www.w3.org/1999/xlink" 
	 viewBox="0 0 512 512" xml:space="preserve">
<g>
	<g>
		<path fill="white" d="M501.333,95.99h-129.92c16.96-10.453,25.173-22.4,28.8-29.867c8.32-17.067,6.4-36.053-4.8-49.387
			c-12.8-15.36-34.667-20.48-58.56-13.867c-64,17.92-77.227,70.4-80,94.187h-1.067c-1.493-24.32-12.373-76.48-77.44-94.187
			c-25.067-6.827-48-1.28-61.44,15.04c-11.307,13.547-13.227,32.533-5.013,49.387c3.52,7.147,11.307,18.56,27.733,29.76H10.667
			C4.8,95.99,0,100.79,0,106.656v96c0,5.867,4.8,10.667,10.667,10.667H32V447.99c0,30.933,21.44,64,53.333,64H421.44
			c32.427,0,58.56-34.987,58.56-64V213.323h21.333c5.867,0,10.667-4.8,10.667-10.667v-96C512,106.656,507.2,95.99,501.333,95.99z
			 M342.613,23.456C347.2,22.07,352,21.43,356.8,21.323c9.493,0,17.387,3.093,22.293,9.067c5.867,7.04,6.613,16.853,1.92,26.453
			c-4.587,9.387-25.067,38.72-102.933,39.147C280.64,77.11,292.16,37.536,342.613,23.456z M130.88,58.016
			c-4.587-9.387-3.733-19.307,2.347-26.56c5.547-6.613,14.293-10.133,24.64-10.133c5.013,0.107,9.92,0.747,14.72,2.133
			c51.627,14.187,60.587,54.08,61.867,72.533C155.627,95.776,135.36,67.083,130.88,58.016z M21.333,191.99v-74.667h149.333v74.667
			H21.333z M192,490.656H85.333c-18.347,0-32-22.507-32-42.667V213.323H192V490.656z M192,117.323h128v74.667H192V117.323z
			 M298.667,490.656h-85.333V213.323h85.333V490.656z M458.667,447.99c0,20.693-19.093,42.667-37.227,42.667H320V213.323h138.667
			V447.99z M490.667,191.99H341.333v-74.667h149.333V191.99z"/>
	</g>
</g>
</svg>