<svg width="84" height="84" viewBox="0 0 84 84" fill="none" xmlns="http://www.w3.org/2000/svg">
<circle cx="12" cy="35" r="10" fill="#E70078"/>
<rect y="47" width="84" height="4" rx="2" fill="#E1E1E2"/>
<path d="M31.134 53.5C31.5189 52.8333 32.4811 52.8333 32.866 53.5L39.7942 65.5C40.1791 66.1667 39.698 67 38.9282 67H25.0718C24.302 67 23.8209 66.1667 24.2058 65.5L31.134 53.5Z" fill="#C6C6C7"/>
<path d="M50 21C50 16.5817 53.5817 13 58 13H74C78.4183 13 82 16.5817 82 21V37C82 41.4183 78.4183 45 74 45H58C53.5817 45 50 41.4183 50 37V21Z" fill="#007DFF"/>
</svg>
